# xmcd
#
# Track frame offsets:
#	150
#	22425
#	41183
#	65220
#	86809
#	115539
#	139751
#	161825
#	193878
#	219806
#	240666
#	257515
#	278315
#	296811
#	316260
#	336210
#
# Disc length: 4739
#
# Revision: 1
# Processed by: cddbd v1.5.1PL0 Copyright (c) Steve Scherf et al.
# Submitted via: dBpowerAMP V4.0
# Normalized: r0:TRMNUM
#
DISCID=f6128110
DTITLE=REPENTES E VIOLAS - COLETÂNIA
DYEAR=1900
DGENRE=REPENTES
TTITLE0=DESAFIO - GERALDO AMÂNCIO E M. LAURENTINO
TTITLE1=DESAFIO - ZÉ VIOLA E G. AMÂNCIO
TTITLE2=DESAFIO - M. LAURENTINO E ZÉ VIOLA
TTITLE3=DESAFIO - CHICO ALVES E PAULO NASCIMENTO
TTITLE4=DESAFIO - SEB. DA SILVA E M. LAURENTINO
TTITLE5=DESAFIO - LOURO BRANCO E ZÉ VIOLA
TTITLE6=DESAFIO
TTITLE7=O QUE ME FALTA FAZER MAIS
TTITLE8=GALOPE BEIRA MAR
TTITLE9=VIOLÊNCIA
TTITLE10=NATUREZA
TTITLE11=QUANDO A SECA CHEGOU
TTITLE12=BRASIL CABÕCLO
TTITLE13=NORDESTE DE ONTEM E HOJE
TTITLE14=GEMIDO DE TODOS NÓS
TTITLE15=INVERNO NO SERTÃO
EXTD=
EXTT0=
EXTT1=
EXTT2=
EXTT3=
EXTT4=
EXTT5=
EXTT6=
EXTT7=
EXTT8=
EXTT9=
EXTT10=
EXTT11=
EXTT12=
EXTT13=
EXTT14=
EXTT15=
PLAYORDER=
